<?xml version="1.0" encoding="utf-8"?>
<!-- Generator: Adobe Illustrator 19.0.0, SVG Export Plug-In . SVG Version: 6.00 Build 0)  -->
<svg version="1.1" id="Layer_1" xmlns="http://www.w3.org/2000/svg" xmlns:xlink="http://www.w3.org/1999/xlink" x="0px" y="0px"
	 viewBox="0 0 96 96" style="enable-background:new 0 0 96 96;" xml:space="preserve">
<style type="text/css">
	.st0{fill:#E74C3C;}
	.st1{fill:#C0392B;}
</style>
<g id="XMLID_1_">
	<path id="XMLID_5_" class="st0" d="M48,15.5c-12,0-21.7,9.7-21.7,21.7c0,3.8,1,7.4,2.8,10.6c0.3,0.5,0.6,1,0.9,1.5L48,80.5
		l17.9-31.2c0.3-0.4,0.5-0.8,0.8-1.3l0.2-0.3c1.8-3.1,2.8-6.7,2.8-10.6C69.7,25.2,60,15.5,48,15.5z M48,26.3c6,0,10.8,4.9,10.8,10.8
		C58.8,43.1,54,48,48,48c-6,0-10.8-4.9-10.8-10.8C37.2,31.2,42,26.3,48,26.3z"/>
	<path id="XMLID_8_" class="st1" d="M48,23.6c-7.5,0-13.5,6.1-13.5,13.5c0,7.5,6.1,13.5,13.5,13.5c7.5,0,13.5-6.1,13.5-13.5
		C61.5,29.7,55.5,23.6,48,23.6z M48,29c4.5,0,8.1,3.6,8.1,8.1s-3.6,8.1-8.1,8.1s-8.1-3.6-8.1-8.1S43.5,29,48,29z"/>
</g>
</svg>
